@startuml
'https://plantuml.com/class-diagram
package java <<Folder>>#DDDDDD {
package Company <<Folder>>#DDDDDD {


package Controller <<Folder>>#DDDDDD {
class MainController{

}

}

package ui <<Folder>>#DDDDDD {
class MenuUI{
+ MainController()
}

class Main{
+ MenuUI()
}

}
package Model <<Folder>>#DDDDDD {

class Company{
+getStoreLists()
+getMapGraphPessoaStore()
}
class Pessoa{
}
}


}
package Store <<Folder>>#DDDDDD {

class MapGraphPessoaStore{
+getMapGraph()
}
}



package Graph <<Folder>>#DDDDDD {
package map <<Folder>>#DDDDDD {
class MapGraph{
+graph.addVertex(pessoa)
+addEdge(pessoa, auxPessoa, helper.getDistancia())
}
}

class Edge{
+Edge(pessoa, auxPessoa, helper.getDistancia())
}
Interface Graph

class Algorithms{
+BreadthFirstSearch(mapGraphPessoaap, pessoaAux)
+vertCycles(mapGraph, pessoa,comparator )
}

class CommonGraph{
+vertices()
}
}

package Methods <<Folder>>#DDDDDD {
class GraphConexo{
+verificarGraphConexo()
+numeroLigacoesDiam(local)
+biggestSize(listAux)
}
}


Main ..> MenuUI
MenuUI ..> MainController


MainController ..> Company
MainController ..> GraphConexo

Company *-- MapGraphPessoaStore : owns


GraphConexo -- Algorithms : uses >


MapGraph --|> CommonGraph : extends

MapGraphPessoaStore "1" -- "*" Edge: has >
MapGraphPessoaStore "1" -- "*" Pessoa: has >

MapGraphPessoaStore "1" -- "0..1" MapGraph: has >
MapGraph ..|> Graph : implements


@enduml