@startuml
'https://plantuml.com/class-diagram
package java <<Folder>>#DDDDDD {
package Company <<Folder>>#DDDDDD {

package ReadFromCSV <<Folder>>#DDDDDD {
class ReadFromCSV{
+lerClienteProdutor(caminho)
+lerDistancias(caminho)
}
}

package Controller <<Folder>>#DDDDDD {
class MainController{
+lerClienteProdutor(fileName.getPath())
+lerDistancias(fileName.getPath())
+createGraph()
+setMapGraph(MapGraph)
+findVertexWithMinimumDistance()
+findNearestHubEachClient()
+findNearestHub()
}

}

package ui <<Folder>>#DDDDDD {
class MenuUI{
+ MainController()
}

class Main{
+ MenuUI()
}

}
package Model <<Folder>>#DDDDDD {

class Company{
+getStoreLists()
+getMapGraphPessoaStore()
}
class Pessoa{
}
class Empresa{
}
class Cliente{
}
class Produtor{
}

}


}
package Store <<Folder>>#DDDDDD {

class StoreLists{
+addPessoaList(pessoa)
+addLocalidadeList(localidade)
+setPessoaList(pessoaList)
+setLocalidadeList(localidadeList)
+getPessoaList()
+getLocalidadeList()
}
class MapGraphPessoaStore{
+setMapGraph(graph)
+getMapGraph()
}
}



package Graph <<Folder>>#DDDDDD {
package map <<Folder>>#DDDDDD {
class MapGraph{
+graph.addVertex(pessoa)
+addEdge(pessoa, auxPessoa, helper.getDistancia())
+edge(pessoa, pessoa1)
}
}

class Edge{
+Edge(pessoa, auxPessoa, helper.getDistancia())
+getWeight()
}
Interface Graph

package Constants <<Folder>>#DDDDDD {
class Constants
}

class Algorithms{
+BreadthFirstSearch(mapGraphPessoaap, pessoaAux)
+vertCycles(mapGraph, pessoa,comparator )
+minDistGraph(mapGraphPessoa, comparator, binaryOperator)
+minDistGraph(mapGraphPessoa, comparator, binaryOperator)
}

class CommonGraph{
+vertices()
}
}

package Methods <<Folder>>#DDDDDD {
class GraphConexo{
+verificarGraphConexo()
+numeroLigacoesDiam(local)
+biggestSize(listAux)
}

class CreateGraph{
+createGraph()
+findPessoaByLocal(local)
}

class FindMethods{
+findVertexWithMinimumDistance()
+findNearestHubEachClient()
+findNearestHub()
}

}


Main ..> MenuUI
MenuUI ..> MainController


MainController ..> Company
MainController ..> GraphConexo
MainController ..> ReadFromCSV
MainController ..> CreateGraph
MainController ..> FindMethods

ReadFromCSV -->  Pessoa:  needs
ReadFromCSV -->  Constants: needs


Pessoa <|--  Empresa: extends
Pessoa <|-- Cliente: extends
Pessoa <|-- Produtor: extends

MapGraphPessoaStore "1" -- "*" Edge: has >
MapGraphPessoaStore "1" -- "*" Pessoa: has >
MapGraphPessoaStore "1" -- "0..1" MapGraph: has >

StoreLists "1" *-- "1..*" List : has

MapGraph ..|> Graph : implements
MapGraph --|> CommonGraph : extends

Company *-- StoreLists : owns
Company *-- MapGraphPessoaStore : owns

GraphConexo -- Algorithms : uses >
FindMethods -- Algorithms : uses >

@enduml